# Rhino

g object_1
v 0.6639863252639771 -0.01075287070125341 0.3040672540664673
v 0.6639863252639771 -0.0007528702262789011 0.3040672540664673
v 0.6639863252639771 -0.01075287070125341 1.117763042449951
v 0.6639863252639771 -0.0007528702262789011 1.117763042449951
v 0.6639863252639771 -0.01075287070125341 1.117763042449951
v 0.6639863252639771 -0.0007528702262789011 1.117763042449951
v 1.442304015159607 -0.01075287070125341 1.117763042449951
v 1.442304015159607 -0.0007528702262789011 1.117763042449951
v 1.442304015159607 -0.01075287070125341 1.117763042449951
v 1.442304015159607 -0.0007528702262789011 1.117763042449951
v 1.442304015159607 -0.01075287070125341 0.3040672540664673
v 1.442304015159607 -0.0007528702262789011 0.3040672540664673
v 1.442304015159607 -0.01075287070125341 0.3040672540664673
v 1.442304015159607 -0.0007528702262789011 0.3040672540664673
v 0.6639863252639771 -0.01075287070125341 0.3040672540664673
v 0.6639863252639771 -0.0007528702262789011 0.3040672540664673
v 0.6639863252639771 -0.01075287070125341 0.3040672540664673
v 0.6639863252639771 -0.01075287070125341 1.117763042449951
v 1.442304015159607 -0.01075287070125341 1.117763042449951
v 1.442304015159607 -0.01075287070125341 0.3040672540664673
v 0.6639863252639771 -0.0007528702262789011 0.3040672540664673
v 0.6639863252639771 -0.0007528702262789011 1.117763042449951
v 1.442304015159607 -0.0007528702262789011 1.117763042449951
v 1.442304015159607 -0.0007528702262789011 0.3040672540664673
vt 0 0
vt 0 0.5031912922859192
vt 0.2555555701255798 0
vt 0.2555555701255798 0.5031912922859192
vt 0.2555555701255798 0
vt 0.2555555701255798 0.5031912922859192
vt 0.5 0
vt 0.5 0.5031912922859192
vt 0.5 0
vt 0.5 0.5031912922859192
vt 0.7555555701255798 0
vt 0.7555555701255798 0.5031912922859192
vt 0.7555555701255798 0
vt 0.7555555701255798 0.5031912922859192
vt 1 0
vt 1 0.5031912922859192
vt 0.2555555701255798 0.5031918287277222
vt 0 0.5031918287277222
vt 0 1
vt 0.2555555701255798 1
vt 1 1
vt 0.7444444298744202 1
vt 0.7444444298744202 0.5031918287277222
vt 1 0.5031918287277222
vn -1 0 0
vn -1 0 0
vn -1 0 0
vn -1 0 0
vn 0 0 1
vn 0 0 1
vn 0 0 1
vn 0 0 1
vn 1 0 0
vn 1 0 0
vn 1 0 0
vn 1 0 0
vn 0 0 -1
vn 0 0 -1
vn 0 0 -1
vn 0 0 -1
vn 0 -1 0
vn 0 -1 0
vn 0 -1 0
vn 0 -1 0
vn 0 1 0
vn 0 1 0
vn 0 1 0
vn 0 1 0
f 1/1/1 3/3/3 4/4/4 2/2/2
f 5/5/5 7/7/7 8/8/8 6/6/6
f 9/9/9 11/11/11 12/12/12 10/10/10
f 13/13/13 15/15/15 16/16/16 14/14/14
f 17/17/17 20/20/20 19/19/19
f 19/19/19 18/18/18 17/17/17
f 21/21/21 23/23/23 24/24/24
f 23/23/23 21/21/21 22/22/22
g object_2
v 0 0 0
v 0 0.02999999932944775 0
v 0 0 3.369999885559082
v 0 0.02999999932944775 3.369999885559082
v 0 0 3.369999885559082
v 0 0.02999999932944775 3.369999885559082
v 2.125 0 3.369999885559082
v 2.125 0.02999999932944775 3.369999885559082
v 2.125 0 3.369999885559082
v 2.125 0.02999999932944775 3.369999885559082
v 2.125 0 0
v 2.125 0.02999999932944775 0
v 2.125 0 0
v 2.125 0.02999999932944775 0
v 0 0 0
v 0 0.02999999932944775 0
v 0 0 0
v 0 0 3.369999885559082
v 2.125 0 3.369999885559082
v 2.125 0 0
v 0 0.02999999932944775 0
v 0 0.02999999932944775 3.369999885559082
v 2.125 0.02999999932944775 3.369999885559082
v 2.125 0.02999999932944775 0
vt 0 0
vt 0 0.5035043954849243
vt 0.3066424131393433 0
vt 0.3066424131393433 0.5035043954849243
vt 0.3066424131393433 0
vt 0.3066424131393433 0.5035043954849243
vt 0.5 0
vt 0.5 0.5035043954849243
vt 0.5 0
vt 0.5 0.5035043954849243
vt 0.8066424131393433 0
vt 0.8066424131393433 0.5035043954849243
vt 0.8066424131393433 0
vt 0.8066424131393433 0.5035043954849243
vt 1 0
vt 1 0.5035043954849243
vt 0.3066424131393433 0.5035049319267273
vt 0 0.5035049319267273
vt 0 1
vt 0.3066424131393433 1
vt 1 1
vt 0.6933575868606567 1
vt 0.6933575868606567 0.5035049319267273
vt 1 0.5035049319267273
vn -1 0 0
vn -1 0 0
vn -1 0 0
vn -1 0 0
vn 0 0 1
vn 0 0 1
vn 0 0 1
vn 0 0 1
vn 1 0 0
vn 1 0 0
vn 1 0 0
vn 1 0 0
vn 0 0 -1
vn 0 0 -1
vn 0 0 -1
vn 0 0 -1
vn 0 -1 0
vn 0 -1 0
vn 0 -1 0
vn 0 -1 0
vn 0 1 0
vn 0 1 0
vn 0 1 0
vn 0 1 0
f 25/25/25 27/27/27 28/28/28 26/26/26
f 29/29/29 31/31/31 32/32/32 30/30/30
f 33/33/33 35/35/35 36/36/36 34/34/34
f 37/37/37 39/39/39 40/40/40 38/38/38
f 41/41/41 44/44/44 43/43/43
f 43/43/43 42/42/42 41/41/41
f 45/45/45 47/47/47 48/48/48
f 47/47/47 45/45/45 46/46/46
