# Rhino

g object_1
v 32 -3 0
v 32 -3 -10
v 32 -1 0
v 32 -1 -10
v 32 -1 0
v 32 -1 -10
v 34 -1 0
v 34 -1 -10
v 34 -1 0
v 34 -1 -10
v 34 -3 0
v 34 -3 -10
v 34 -3 0
v 34 -3 -10
v 32 -3 0
v 32 -3 -10
v 34 -3 -10
v 34 -1 -10
v 32 -3 -10
v 32 -1 -10
v 32 -14 0
v 32 -14 -10
v 32 -12 0
v 32 -12 -10
v 32 -12 0
v 32 -12 -10
v 34 -12 0
v 34 -12 -10
v 34 -12 0
v 34 -12 -10
v 34 -14 0
v 34 -14 -10
v 34 -14 0
v 34 -14 -10
v 32 -14 0
v 32 -14 -10
v 34 -14 -10
v 34 -12 -10
v 32 -14 -10
v 32 -12 -10
v 1 -3 0
v 1 -3 -10
v 1 -1 0
v 1 -1 -10
v 1 -1 0
v 1 -1 -10
v 3 -1 0
v 3 -1 -10
v 3 -1 0
v 3 -1 -10
v 3 -3 0
v 3 -3 -10
v 3 -3 0
v 3 -3 -10
v 1 -3 0
v 1 -3 -10
v 3 -3 -10
v 3 -1 -10
v 1 -3 -10
v 1 -1 -10
v 1 -14 0
v 1 -14 -10
v 1 -12 0
v 1 -12 -10
v 1 -12 0
v 1 -12 -10
v 3 -12 0
v 3 -12 -10
v 3 -12 0
v 3 -12 -10
v 3 -14 0
v 3 -14 -10
v 3 -14 0
v 3 -14 -10
v 1 -14 0
v 1 -14 -10
v 3 -14 -10
v 3 -12 -10
v 1 -14 -10
v 1 -12 -10
v 0 -15 0
v 0 -15 1
v 35 -15 0
v 35 -15 1
v 35 -15 0
v 35 -15 1
v 35 0 0
v 35 0 1
v 35 0 0
v 35 0 1
v 0 0 0
v 0 0 1
v 0 0 0
v 0 0 1
v 0 -15 0
v 0 -15 1
v 0 -15 0
v 0 0 0
v 35 -15 0
v 35 0 0
v 32 -3 0
v 32 -1 0
v 34 -1 0
v 34 -3 0
v 32 -14 0
v 32 -12 0
v 34 -12 0
v 34 -14 0
v 1 -3 0
v 1 -1 0
v 3 -1 0
v 3 -3 0
v 1 -14 0
v 1 -12 0
v 3 -12 0
v 3 -14 0
v 0 -15 1
v 0 0 1
v 35 -15 1
v 35 0 1
vt 0.8152173757553101 0.3043478131294251
vt 0.5978260636329651 0.3043478131294251
vt 0.8152173757553101 0.3463612496852875
vt 0.5978260636329651 0.3463612496852875
vt 0.8152173757553101 0.260869562625885
vt 0.5978260636329651 0.260869562625885
vt 0.8152173757553101 0.3028829693794251
vt 0.5978260636329651 0.3028829693794251
vt 0.8152173757553101 0.04347826167941093
vt 0.5978260636329651 0.04347826167941093
vt 0.8152173757553101 0.08549167960882187
vt 0.5978260636329651 0.08549167960882187
vt 0.8152173757553101 0
vt 0.5978260636329651 0
vt 0.8152173757553101 0.04201341792941093
vt 0.5978260636329651 0.04201341792941093
vt 0.29347825050354 0
vt 0.29347825050354 0.04347826167941093
vt 0.3369565308094025 0
vt 0.3369565308094025 0.04347826167941093
vt 0.8152173757553101 0.1304347813129425
vt 0.5978260636329651 0.1304347813129425
vt 0.8152173757553101 0.1724482029676437
vt 0.5978260636329651 0.1724482029676437
vt 0.8152173757553101 0.08695652335882187
vt 0.5978260636329651 0.08695652335882187
vt 0.8152173757553101 0.1289699375629425
vt 0.5978260636329651 0.1289699375629425
vt 0.08695652335882187 0
vt 0.08695652335882187 0.2173912972211838
vt 0.1289699375629425 0
vt 0.1289699375629425 0.2173912972211838
vt 0.04347826167941093 0
vt 0.04347826167941093 0.2173912972211838
vt 0.08549167960882187 0
vt 0.08549167960882187 0.2173912972211838
vt 0.2173912972211838 0
vt 0.2173912972211838 0.04347826167941093
vt 0.260869562625885 0
vt 0.260869562625885 0.04347826167941093
vt 0.1739130467176437 0
vt 0.1739130467176437 0.2173912972211838
vt 0.2159264534711838 0
vt 0.2159264534711838 0.2173912972211838
vt 0.1304347813129425 0
vt 0.1304347813129425 0.2173912972211838
vt 0.1724482029676437 0
vt 0.1724482029676437 0.2173912972211838
vt 0.29347825050354 0.09937888383865356
vt 0.29347825050354 0.3167701959609985
vt 0.3369565308094025 0.09937888383865356
vt 0.3369565308094025 0.3167701959609985
vt 0.2173912972211838 0.09937888383865356
vt 0.2173912972211838 0.3167701959609985
vt 0.260869562625885 0.09937888383865356
vt 0.260869562625885 0.3167701959609985
vt 0.29347825050354 0.04968944191932678
vt 0.29347825050354 0.09316769987344742
vt 0.3369565308094025 0.04968944191932678
vt 0.3369565308094025 0.09316769987344742
vt 0.445652186870575 0
vt 0.445652186870575 0.2173912972211838
vt 0.489130437374115 0
vt 0.489130437374115 0.2173912972211838
vt 0.3695652186870575 0
vt 0.3695652186870575 0.2173912972211838
vt 0.4130434691905975 0
vt 0.4130434691905975 0.2173912972211838
vt 0.8152173757553101 0.2173912972211838
vt 0.5978260636329651 0.2173912972211838
vt 0.8152173757553101 0.259404718875885
vt 0.5978260636329651 0.259404718875885
vt 0.8152173757553101 0.1739130467176437
vt 0.5978260636329651 0.1739130467176437
vt 0.8152173757553101 0.2159264534711838
vt 0.5978260636329651 0.2159264534711838
vt 0.2173912972211838 0.04968944191932678
vt 0.2173912972211838 0.09316769987344742
vt 0.260869562625885 0.04968944191932678
vt 0.260869562625885 0.09316769987344742
vt 0.04201341792941093 0
vt 0.02173913083970547 0
vt 0.04201341792941093 0.760869562625885
vt 0.02173913083970547 0.760869562625885
vt 0.58152174949646 0
vt 0.5597826242446899 0
vt 0.58152174949646 0.3260869681835175
vt 0.5597826242446899 0.3260869681835175
vt 0.02027428708970547 0
vt 0 0
vt 0.02027428708970547 0.760869562625885
vt 0 0.760869562625885
vt 0.54347825050354 0
vt 0.52173912525177 0
vt 0.54347825050354 0.3260869681835175
vt 0.52173912525177 0.3260869681835175
vt 0.2173912972211838 0.6739130616188049
vt 0.2173912972211838 0.99853515625
vt 0.97679603099823 0.6739130616188049
vt 0.97679603099823 0.99853515625
vt 0.9117041826248169 0.933610737323761
vt 0.9117041826248169 0.9768936634063721
vt 0.9550987482070923 0.9768936634063721
vt 0.9550987482070923 0.933610737323761
vt 0.9117041826248169 0.6955544948577881
vt 0.9117041826248169 0.738837480545044
vt 0.9550987482070923 0.738837480545044
vt 0.9550987482070923 0.6955544948577881
vt 0.2390885800123215 0.933610737323761
vt 0.2390885800123215 0.9768936634063721
vt 0.2824831306934357 0.9768936634063721
vt 0.2824831306934357 0.933610737323761
vt 0.2390885800123215 0.6955544948577881
vt 0.2390885800123215 0.738837480545044
vt 0.2824831306934357 0.738837480545044
vt 0.2824831306934357 0.6955544948577881
vt 0.2173912972211838 0.3478260934352875
vt 0.2173912972211838 0.6724482178688049
vt 0.97679603099823 0.3478260934352875
vt 0.97679603099823 0.6724482178688049
vn -1 0 0
vn -1 0 0
vn -1 0 0
vn -1 0 0
vn 0 1 0
vn 0 1 0
vn 0 1 0
vn 0 1 0
vn 1 0 0
vn 1 0 0
vn 1 0 0
vn 1 0 0
vn 0 -1 0
vn 0 -1 0
vn 0 -1 0
vn 0 -1 0
vn 0 0 -1
vn 0 0 -1
vn 0 0 -1
vn 0 0 -1
vn -1 0 0
vn -1 0 0
vn -1 0 0
vn -1 0 0
vn 0 1 0
vn 0 1 0
vn 0 1 0
vn 0 1 0
vn 1 0 0
vn 1 0 0
vn 1 0 0
vn 1 0 0
vn 0 -1 0
vn 0 -1 0
vn 0 -1 0
vn 0 -1 0
vn 0 0 -1
vn 0 0 -1
vn 0 0 -1
vn 0 0 -1
vn -1 0 0
vn -1 0 0
vn -1 0 0
vn -1 0 0
vn 0 1 0
vn 0 1 0
vn 0 1 0
vn 0 1 0
vn 1 0 0
vn 1 0 0
vn 1 0 0
vn 1 0 0
vn 0 -1 0
vn 0 -1 0
vn 0 -1 0
vn 0 -1 0
vn 0 0 -1
vn 0 0 -1
vn 0 0 -1
vn 0 0 -1
vn -1 0 0
vn -1 0 0
vn -1 0 0
vn -1 0 0
vn 0 1 0
vn 0 1 0
vn 0 1 0
vn 0 1 0
vn 1 0 0
vn 1 0 0
vn 1 0 0
vn 1 0 0
vn 0 -1 0
vn 0 -1 0
vn 0 -1 0
vn 0 -1 0
vn 0 0 -1
vn 0 0 -1
vn 0 0 -1
vn 0 0 -1
vn 0 -1 0
vn 0 -1 0
vn 0 -1 0
vn 0 -1 0
vn 1 0 0
vn 1 0 0
vn 1 0 0
vn 1 0 0
vn 0 1 0
vn 0 1 0
vn 0 1 0
vn 0 1 0
vn -1 0 0
vn -1 0 0
vn -1 0 0
vn -1 0 0
vn 0 0 -1
vn 0 0 -1
vn 0 0 -1
vn 0 0 -1
vn 0 0 -1
vn 0 0 -1
vn 0 0 -1
vn 0 0 -1
vn 0 0 -1
vn 0 0 -1
vn 0 0 -1
vn 0 0 -1
vn 0 0 -1
vn 0 0 -1
vn 0 0 -1
vn 0 0 -1
vn 0 0 -1
vn 0 0 -1
vn 0 0 -1
vn 0 0 -1
vn 0 0 1
vn 0 0 1
vn 0 0 1
vn 0 0 1
f 2/2/2 1/1/1 3/3/3 4/4/4
f 6/6/6 5/5/5 7/7/7 8/8/8
f 10/10/10 9/9/9 11/11/11 12/12/12
f 14/14/14 13/13/13 15/15/15 16/16/16
f 18/18/18 17/17/17 19/19/19 20/20/20
f 22/22/22 21/21/21 23/23/23 24/24/24
f 26/26/26 25/25/25 27/27/27 28/28/28
f 30/30/30 29/29/29 31/31/31 32/32/32
f 34/34/34 33/33/33 35/35/35 36/36/36
f 38/38/38 37/37/37 39/39/39 40/40/40
f 42/42/42 41/41/41 43/43/43 44/44/44
f 46/46/46 45/45/45 47/47/47 48/48/48
f 50/50/50 49/49/49 51/51/51 52/52/52
f 54/54/54 53/53/53 55/55/55 56/56/56
f 58/58/58 57/57/57 59/59/59 60/60/60
f 62/62/62 61/61/61 63/63/63 64/64/64
f 66/66/66 65/65/65 67/67/67 68/68/68
f 70/70/70 69/69/69 71/71/71 72/72/72
f 74/74/74 73/73/73 75/75/75 76/76/76
f 78/78/78 77/77/77 79/79/79 80/80/80
f 82/82/82 81/81/81 83/83/83 84/84/84
f 86/86/86 85/85/85 87/87/87 88/88/88
f 90/90/90 89/89/89 91/91/91 92/92/92
f 94/94/94 93/93/93 95/95/95 96/96/96
f 114/114/114 113/113/113 97/97/97
f 116/116/116 97/97/97 113/113/113
f 115/115/115 106/106/106 105/105/105 116/116/116
f 115/115/115 114/114/114 109/109/109 112/112/112
f 97/97/97 116/116/116 105/105/105 99/99/99
f 114/114/114 97/97/97 98/98/98 109/109/109
f 110/110/110 109/109/109 98/98/98
f 111/111/111 102/102/102 101/101/101 112/112/112
f 98/98/98 111/111/111 110/110/110
f 111/111/111 98/98/98 100/100/100 102/102/102
f 112/112/112 101/101/101 106/106/106 115/115/115
f 107/107/107 99/99/99 108/108/108
f 105/105/105 108/108/108 99/99/99
f 99/99/99 107/107/107 104/104/104 100/100/100
f 107/107/107 106/106/106 101/101/101 104/104/104
f 103/103/103 100/100/100 104/104/104
f 102/102/102 100/100/100 103/103/103
f 118/118/118 117/117/117 119/119/119 120/120/120
