# Rhino

g object_1
v 5.5 -18 -1
v 5.5 -17.5 -1
v 5.5 -18 1
v 5.5 -17.5 1
v 5.5 -18 1
v 5.5 -17.5 1
v 9.5 -18 1
v 9.5 -17.5 1
v 9.5 -18 1
v 9.5 -17.5 1
v 9.5 -18 -1
v 9.5 -17.5 -1
v 7 -18 -1
v 7 -17.5 -1
v 5.5 -18 -1
v 5.5 -17.5 -1
v 9.5 -18 -1
v 9.5 -18 1
v 5.5 -18 -1
v 5.5 -18 1
v 8 -18 -1
v 7 -18 -1
v 9.5 -17.5 -1
v 9.5 -17.5 1
v 5.5 -17.5 -1
v 5.5 -17.5 1
v 8 -17.5 -1
v 7 -17.5 -1
v 7 -18 -4.5
v 7 -18 -1
v 8 -18 -4.5
v 8 -18 -1
v 8 -18 -4.5
v 8 -18 -1
v 8 -17.5 -4.5
v 8 -17.5 -1
v 8 -17.5 -4
v 7 -17.5 -4.5
v 7 -17.5 -1
v 7 -18 -4.5
v 7 -18 -1
v 7 -17.5 -4
v 7 -18 -4.5
v 7 -17.5 -4.5
v 8 -18 -4.5
v 8 -17.5 -4.5
v 9 -17 -4.5
v 9 -17 -10
v 9 -16.5 -4.5
v 9 -16.5 -10
v 9 -16.5 -4.5
v 9 -16.5 -10
v 9.5 -16.5 -4.5
v 9.5 -16.5 -10
v 9.5 -16.5 -4.5
v 9.5 -16.5 -10
v 9.5 -17 -4.5
v 9.5 -17 -10
v 9.5 -17 -4.5
v 9.5 -17 -10
v 9 -17 -4.5
v 9 -17 -10
v 9.5 -17 -10
v 9.5 -16.5 -10
v 9 -17 -10
v 9 -16.5 -10
v 9 -13.5 -4.5
v 9 -13.5 -10
v 9 -13 -4.5
v 9 -13 -10
v 9 -13 -4.5
v 9 -13 -10
v 9.5 -13 -4.5
v 9.5 -13 -10
v 9.5 -13 -4.5
v 9.5 -13 -10
v 9.5 -13.5 -4.5
v 9.5 -13.5 -10
v 9.5 -13.5 -4.5
v 9.5 -13.5 -10
v 9 -13.5 -4.5
v 9 -13.5 -10
v 9.5 -13.5 -10
v 9.5 -13 -10
v 9 -13.5 -10
v 9 -13 -10
v 5.5 -13.5 -4.5
v 5.5 -13.5 -10
v 5.5 -13 -4.5
v 5.5 -13 -10
v 5.5 -13 -4.5
v 5.5 -13 -10
v 6 -13 -4.5
v 6 -13 -10
v 6 -13 -4.5
v 6 -13 -10
v 6 -13.5 -4.5
v 6 -13.5 -10
v 6 -13.5 -4.5
v 6 -13.5 -10
v 5.5 -13.5 -4.5
v 5.5 -13.5 -10
v 6 -13.5 -10
v 6 -13 -10
v 5.5 -13.5 -10
v 5.5 -13 -10
v 5.5 -17 -4.5
v 5.5 -17 -10
v 5.5 -16.5 -4.5
v 5.5 -16.5 -10
v 5.5 -16.5 -4.5
v 5.5 -16.5 -10
v 6 -16.5 -4.5
v 6 -16.5 -10
v 6 -16.5 -4.5
v 6 -16.5 -10
v 6 -17 -4.5
v 6 -17 -10
v 6 -17 -4.5
v 6 -17 -10
v 5.5 -17 -4.5
v 5.5 -17 -10
v 6 -17 -10
v 6 -16.5 -10
v 5.5 -17 -10
v 5.5 -16.5 -10
v 5 -17.5 -4.5
v 5 -17.5 -4
v 7 -17.5 -4.5
v 7 -17.5 -4
v 10 -17.5 -4.5
v 10 -17.5 -4
v 10 -12.5 -4.5
v 10 -12.5 -4
v 10 -12.5 -4.5
v 10 -12.5 -4
v 5 -12.5 -4.5
v 5 -12.5 -4
v 5 -12.5 -4.5
v 5 -12.5 -4
v 5 -17.5 -4.5
v 5 -17.5 -4
v 5 -17.5 -4.5
v 5 -12.5 -4.5
v 10 -17.5 -4.5
v 10 -12.5 -4.5
v 7 -17.5 -4.5
v 8 -17.5 -4.5
v 9 -17 -4.5
v 9 -16.5 -4.5
v 9.5 -16.5 -4.5
v 9.5 -17 -4.5
v 9 -13.5 -4.5
v 9 -13 -4.5
v 9.5 -13 -4.5
v 9.5 -13.5 -4.5
v 5.5 -13.5 -4.5
v 5.5 -13 -4.5
v 6 -13 -4.5
v 6 -13.5 -4.5
v 5.5 -17 -4.5
v 5.5 -16.5 -4.5
v 6 -16.5 -4.5
v 6 -17 -4.5
v 5 -17.5 -4
v 5 -12.5 -4
v 10 -17.5 -4
v 10 -12.5 -4
v 7 -17.5 -4
v 8 -17.5 -4
v 8 -17.5 -4
v 8 -17.5 -1
v 7 -17.5 -4
v 7 -17.5 -1
v 8 -17.5 -4.5
v 8 -17.5 -4
v 10 -17.5 -4.5
v 10 -17.5 -4
v 9.5 -18 -1
v 9.5 -17.5 -1
v 8 -18 -1
v 8 -17.5 -1
vt 0.1056780144572258 0.6224053502082825
vt 0.0714285746216774 0.6224053502082825
vt 0.1056780144572258 0.7652625441551209
vt 0.0714285746216774 0.7652625441551209
vt 0 0.2857142984867096
vt 0 0.3199637234210968
vt 0.2857142984867096 0.2857142984867096
vt 0.2857142984867096 0.3199637234210968
vt 0.1000000014901161 0
vt 0.06428571790456772 0
vt 0.1000000014901161 0.1413923054933548
vt 0.06428571790456772 0.1413923054933548
vt 0 0.5247252583503723
vt 0 0.5604395866394043
vt 0.1071428582072258 0.5247252583503723
vt 0.1071428582072258 0.5604395866394043
vt 0 0.1428571492433548
vt 0 0.2842494547367096
vt 0.2857142984867096 0.1428571492433548
vt 0.2857142984867096 0.2842494547367096
vt 0.1071428582072258 0.1428571492433548
vt 0.1785714328289032 0.1428571492433548
vt 0.1285714358091354 0
vt 0.1285714358091354 0.1413923054933548
vt 0.4142857193946838 0
vt 0.4142857193946838 0.1413923054933548
vt 0.2357142865657806 0
vt 0.3071428537368774 0
vt 0 0.6224053502082825
vt 0 0.8724053502082825
vt 0.0699637308716774 0.6224053502082825
vt 0.0699637308716774 0.8724053502082825
vt 0.24853515625 0.4807692170143127
vt 0 0.4807692170143127
vt 0.24853515625 0.5164835453033447
vt 0 0.5164835453033447
vt 0.2130301296710968 0.5164835453033447
vt 0.1071428582072258 0.6224053502082825
vt 0.1071428582072258 0.8724053502082825
vt 0.1413923054933548 0.6224053502082825
vt 0.1413923054933548 0.8724053502082825
vt 0.1071428582072258 0.6581196784973145
vt 0 0.3928571343421936
vt 0 0.4285714328289032
vt 0.0714285746216774 0.3928571343421936
vt 0.0714285746216774 0.4285714328289032
vt 0.6413922905921936 0.75
vt 0.25 0.75
vt 0.6413922905921936 0.7842494249343872
vt 0.25 0.7842494249343872
vt 0.6413922905921936 0.6428571343421936
vt 0.25 0.6428571343421936
vt 0.6413922905921936 0.6771065592765808
vt 0.25 0.6771065592765808
vt 0.6413922905921936 0.6071428656578064
vt 0.25 0.6071428656578064
vt 0.6413922905921936 0.6413922905921936
vt 0.25 0.6413922905921936
vt 0.6413922905921936 0.4285714328289032
vt 0.25 0.4285714328289032
vt 0.6413922905921936 0.4628208577632904
vt 0.25 0.4628208577632904
vt 0.2857142984867096 0.7142857313156128
vt 0.25 0.7142857313156128
vt 0.2857142984867096 0.74853515625
vt 0.25 0.74853515625
vt 0.6413922905921936 0.3928571343421936
vt 0.25 0.3928571343421936
vt 0.6413922905921936 0.4271065890789032
vt 0.25 0.4271065890789032
vt 0.6413922905921936 0.5
vt 0.25 0.5
vt 0.6413922905921936 0.5342494249343872
vt 0.25 0.5342494249343872
vt 0.6413922905921936 0.4642857015132904
vt 0.25 0.4642857015132904
vt 0.6413922905921936 0.49853515625
vt 0.25 0.49853515625
vt 0.6413922905921936 0.8571428656578064
vt 0.25 0.8571428656578064
vt 0.6413922905921936 0.8913922905921936
vt 0.25 0.8913922905921936
vt 0.2857142984867096 0.6785714030265808
vt 0.25 0.6785714030265808
vt 0.2857142984867096 0.7128208875656128
vt 0.25 0.7128208875656128
vt 0.6413922905921936 0.8214285969734192
vt 0.25 0.8214285969734192
vt 0.6413922905921936 0.8556780219078064
vt 0.25 0.8556780219078064
vt 0.6413922905921936 0.9285714030265808
vt 0.25 0.9285714030265808
vt 0.6413922905921936 0.9628208875656128
vt 0.25 0.9628208875656128
vt 0.6413922905921936 0.8928571343421936
vt 0.25 0.8928571343421936
vt 0.6413922905921936 0.9271065592765808
vt 0.25 0.9271065592765808
vt 0.3928571343421936 0.3571428656578064
vt 0 0.3571428656578064
vt 0.3928571343421936 0.3913922905921936
vt 0 0.3913922905921936
vt 0.3348214328289032 0.7142857313156128
vt 0.2991071343421936 0.7142857313156128
vt 0.3348214328289032 0.74853515625
vt 0.2991071343421936 0.74853515625
vt 0.3928571343421936 0.3214285671710968
vt 0 0.3214285671710968
vt 0.3928571343421936 0.3556780219078064
vt 0 0.3556780219078064
vt 0.6413922905921936 0.7857142686843872
vt 0.25 0.7857142686843872
vt 0.6413922905921936 0.8199637532234192
vt 0.25 0.8199637532234192
vt 0.6413922905921936 0.5714285969734192
vt 0.25 0.5714285969734192
vt 0.6413922905921936 0.6056780219078064
vt 0.25 0.6056780219078064
vt 0.6413922905921936 0.5357142686843872
vt 0.25 0.5357142686843872
vt 0.6413922905921936 0.5699637532234192
vt 0.25 0.5699637532234192
vt 0.3348214328289032 0.6785714030265808
vt 0.2991071343421936 0.6785714030265808
vt 0.3348214328289032 0.7128208875656128
vt 0.2991071343421936 0.7128208875656128
vt 0.0357142873108387 0
vt 0 0
vt 0.0357142873108387 0.1413923054933548
vt 0 0.1413923054933548
vt 0.2128208726644516 0.5247252583503723
vt 0.1785714328289032 0.5247252583503723
vt 0.2128208726644516 0.8818681240081787
vt 0.1785714328289032 0.8818681240081787
vt 0.1771065890789032 0.5247252583503723
vt 0.1428571492433548 0.5247252583503723
vt 0.1771065890789032 0.8818681240081787
vt 0.1428571492433548 0.8818681240081787
vt 0.24853515625 0.5247252583503723
vt 0.2142857164144516 0.5247252583503723
vt 0.24853515625 0.8818681240081787
vt 0.2142857164144516 0.8818681240081787
vt 0.99853515625 0.4821428656578064
vt 0.6428571343421936 0.4821428656578064
vt 0.99853515625 0.8392857313156128
vt 0.6428571343421936 0.8392857313156128
vt 0.99853515625 0.625
vt 0.99853515625 0.6964285969734192
vt 0.9629673361778259 0.7678571343421936
vt 0.9273995757102966 0.7678571343421936
vt 0.9273995757102966 0.8035714030265808
vt 0.9629673361778259 0.8035714030265808
vt 0.713992714881897 0.7678571343421936
vt 0.6784249544143677 0.7678571343421936
vt 0.6784249544143677 0.8035714030265808
vt 0.713992714881897 0.8035714030265808
vt 0.713992714881897 0.5178571343421936
vt 0.6784249544143677 0.5178571343421936
vt 0.6784249544143677 0.5535714030265808
vt 0.713992714881897 0.5535714030265808
vt 0.9629673361778259 0.5178571343421936
vt 0.9273995757102966 0.5178571343421936
vt 0.9273995757102966 0.5535714030265808
vt 0.9629673361778259 0.5535714030265808
vt 0.99853515625 0
vt 0.6428571343421936 0
vt 0.99853515625 0.3571428656578064
vt 0.6428571343421936 0.3571428656578064
vt 0.99853515625 0.1428571492433548
vt 0.99853515625 0.2142857164144516
vt 0.5625 0.6785714030265808
vt 0.3482142984867096 0.6785714030265808
vt 0.5625 0.74853515625
vt 0.3482142984867096 0.74853515625
vt 0 0.5735653042793274
vt 0 0.6092796325683594
vt 0.1413923054933548 0.5735653042793274
vt 0.1413923054933548 0.6092796325683594
vt 0 0.4368131756782532
vt 0 0.4725274741649628
vt 0.1071428582072258 0.4368131756782532
vt 0.1071428582072258 0.4725274741649628
vn -1 0 0
vn -1 0 0
vn -1 0 0
vn -1 0 0
vn 0 0 1
vn 0 0 1
vn 0 0 1
vn 0 0 1
vn 1 0 0
vn 1 0 0
vn 1 0 0
vn 1 0 0
vn 0 0 -1
vn 0 0 -1
vn 0 0 -1
vn 0 0 -1
vn 0 -1 0
vn 0 -1 0
vn 0 -1 0
vn 0 -1 0
vn 0 -1 0
vn 0 -1 0
vn 0 1 0
vn 0 1 0
vn 0 1 0
vn 0 1 0
vn 0 1 0
vn 0 1 0
vn 0 -1 0
vn 0 -1 0
vn 0 -1 0
vn 0 -1 0
vn 1 0 0
vn 1 0 0
vn 1 0 0
vn 1 0 0
vn 1 8.881784197001252e-16 0
vn -1 0 0
vn -1 0 0
vn -1 0 0
vn -1 0 0
vn -1 0 0
vn 0 0 -1
vn 0 0 -1
vn 0 0 -1
vn 0 0 -1
vn -1 0 0
vn -1 0 0
vn -1 0 0
vn -1 0 0
vn 0 1 0
vn 0 1 0
vn 0 1 0
vn 0 1 0
vn 1 0 0
vn 1 0 0
vn 1 0 0
vn 1 0 0
vn 0 -1 0
vn 0 -1 0
vn 0 -1 0
vn 0 -1 0
vn 0 0 -1
vn 0 0 -1
vn 0 0 -1
vn 0 0 -1
vn -1 0 0
vn -1 0 0
vn -1 0 0
vn -1 0 0
vn 0 1 0
vn 0 1 0
vn 0 1 0
vn 0 1 0
vn 1 0 0
vn 1 0 0
vn 1 0 0
vn 1 0 0
vn 0 -1 0
vn 0 -1 0
vn 0 -1 0
vn 0 -1 0
vn 0 0 -1
vn 0 0 -1
vn 0 0 -1
vn 0 0 -1
vn -1 0 0
vn -1 0 0
vn -1 0 0
vn -1 0 0
vn 0 1 0
vn 0 1 0
vn 0 1 0
vn 0 1 0
vn 1 0 0
vn 1 0 0
vn 1 0 0
vn 1 0 0
vn 0 -1 0
vn 0 -1 0
vn 0 -1 0
vn 0 -1 0
vn 0 0 -1
vn 0 0 -1
vn 0 0 -1
vn 0 0 -1
vn -1 0 0
vn -1 0 0
vn -1 0 0
vn -1 0 0
vn 0 1 0
vn 0 1 0
vn 0 1 0
vn 0 1 0
vn 1 0 0
vn 1 0 0
vn 1 0 0
vn 1 0 0
vn 0 -1 0
vn 0 -1 0
vn 0 -1 0
vn 0 -1 0
vn 0 0 -1
vn 0 0 -1
vn 0 0 -1
vn 0 0 -1
vn 0 -1 0
vn 0 -1 0
vn 0 -1 0
vn 0 -1 0
vn 1 0 0
vn 1 0 0
vn 1 0 0
vn 1 0 0
vn 0 1 0
vn 0 1 0
vn 0 1 0
vn 0 1 0
vn -1 0 0
vn -1 0 0
vn -1 0 0
vn -1 0 0
vn 0 0 -1
vn 0 0 -1
vn 0 0 -1
vn 0 0 -1
vn 0 0 -1
vn 0 0 -1
vn 0 0 -1
vn 0 0 -1
vn 0 0 -1
vn 0 0 -1
vn 0 0 -1
vn 0 0 -1
vn 0 0 -1
vn 0 0 -1
vn 0 0 -1
vn 0 0 -1
vn 0 0 -1
vn 0 0 -1
vn 0 0 -1
vn 0 0 -1
vn 0 0 -1
vn 0 0 -1
vn 0 0 1
vn 0 0 1
vn 0 0 1
vn 0 0 1
vn 0 0 1
vn 0 0 1
vn 0 1 0
vn 0 1 0
vn 0 1 0
vn 0 1 0
vn 0 -1 0
vn 0 -1 0
vn 0 -1 0
vn 0 -1 0
vn 0 0 -1
vn 0 0 -1
vn 0 0 -1
vn 0 0 -1
f 2/2/2 1/1/1 3/3/3 4/4/4
f 6/6/6 5/5/5 7/7/7 8/8/8
f 10/10/10 9/9/9 11/11/11 12/12/12
f 14/14/14 13/13/13 15/15/15 16/16/16
f 18/18/18 21/21/21 17/17/17
f 22/22/22 21/21/21 18/18/18
f 20/20/20 19/19/19 22/22/22
f 18/18/18 20/20/20 22/22/22
f 24/24/24 23/23/23 27/27/27
f 28/28/28 24/24/24 27/27/27
f 26/26/26 28/28/28 25/25/25
f 24/24/24 28/28/28 26/26/26
f 30/30/30 29/29/29 31/31/31 32/32/32
f 34/34/34 33/33/33 37/37/37 36/36/36
f 33/33/33 35/35/35 37/37/37
f 40/40/40 42/42/42 38/38/38
f 39/39/39 42/42/42 40/40/40 41/41/41
f 44/44/44 46/46/46 45/45/45 43/43/43
f 48/48/48 47/47/47 49/49/49 50/50/50
f 52/52/52 51/51/51 53/53/53 54/54/54
f 56/56/56 55/55/55 57/57/57 58/58/58
f 60/60/60 59/59/59 61/61/61 62/62/62
f 64/64/64 63/63/63 65/65/65 66/66/66
f 68/68/68 67/67/67 69/69/69 70/70/70
f 72/72/72 71/71/71 73/73/73 74/74/74
f 76/76/76 75/75/75 77/77/77 78/78/78
f 80/80/80 79/79/79 81/81/81 82/82/82
f 84/84/84 83/83/83 85/85/85 86/86/86
f 88/88/88 87/87/87 89/89/89 90/90/90
f 92/92/92 91/91/91 93/93/93 94/94/94
f 96/96/96 95/95/95 97/97/97 98/98/98
f 100/100/100 99/99/99 101/101/101 102/102/102
f 104/104/104 103/103/103 105/105/105 106/106/106
f 108/108/108 107/107/107 109/109/109 110/110/110
f 112/112/112 111/111/111 113/113/113 114/114/114
f 116/116/116 115/115/115 117/117/117 118/118/118
f 120/120/120 119/119/119 121/121/121 122/122/122
f 124/124/124 123/123/123 125/125/125 126/126/126
f 128/128/128 127/127/127 129/129/129 130/130/130
f 132/132/132 131/131/131 133/133/133 134/134/134
f 136/136/136 135/135/135 137/137/137 138/138/138
f 140/140/140 139/139/139 141/141/141 142/142/142
f 162/162/162 161/161/161 143/143/143
f 164/164/164 143/143/143 161/161/161
f 143/143/143 164/164/164 147/147/147
f 147/147/147 164/164/164 163/163/163
f 162/162/162 143/143/143 144/144/144 157/157/157
f 158/158/158 157/157/157 144/144/144
f 159/159/159 158/158/158 144/144/144
f 163/163/163 162/162/162 157/157/157 160/160/160
f 160/160/160 153/153/153 150/150/150 163/163/163
f 159/159/159 154/154/154 153/153/153 160/160/160
f 159/159/159 144/144/144 146/146/146 154/154/154
f 150/150/150 148/148/148 147/147/147 163/163/163
f 150/150/150 149/149/149 148/148/148
f 145/145/145 148/148/148 149/149/149
f 149/149/149 152/152/152 145/145/145
f 151/151/151 145/145/145 152/152/152
f 153/153/153 156/156/156 151/151/151 150/150/150
f 155/155/155 146/146/146 156/156/156
f 156/156/156 146/146/146 145/145/145 151/151/151
f 154/154/154 146/146/146 155/155/155
f 166/166/166 165/165/165 169/169/169
f 168/168/168 166/166/166 169/169/169 170/170/170
f 168/168/168 170/170/170 167/167/167
f 172/172/172 171/171/171 173/173/173 174/174/174
f 176/176/176 175/175/175 177/177/177 178/178/178
f 180/180/180 179/179/179 181/181/181 182/182/182
